<svg viewBox="0 0 64 64" xmlns="http://www.w3.org/2000/svg">
    <path fill="#1f2326" fill-rule="evenodd" d="M64 32C64 14.327 49.673 0 32 0 14.327 0 0 14.327 0 32c0 17.673 14.327 32 32 32 17.673 0 32-14.327 32-32Z"/>
    <linearGradient id="a" x1="0" y1="64" x2="64" y2="64" gradientUnits="userSpaceOnUse">
        <stop offset="0" stop-color="#29ccb9"/>
        <stop offset=".495" stop-color="#0091ff"/>
        <stop offset="1" stop-color="#ff66b7"/>
    </linearGradient>
    <path fill="url(#a)" fill-rule="evenodd" d="M14.878 54.95C7.891 49.73 3.368 41.393 3.368 32 3.368 16.187 16.187 3.368 32 3.368c13.051 0 27.302 7.8 30.749 19.744C58.897 9.764 46.591 0 32 0 14.327 0 0 14.327 0 32c0 17.673 14.327 32 32 32 17.673 0 32-14.327 32-32v-1.684h-1.758l-.234-.003a57.376 57.376 0 0 1-3.863-.202c-2.401-.208-5.14-.616-7.004-1.36-3-1.2-4.695-2.788-6.63-4.646l-.112-.108c-1.939-1.862-4.117-3.955-7.893-5.732-3.719-1.75-7.831-1.469-10.854-.847a27.51 27.51 0 0 0-3.781 1.07c-.372.134-.74.277-1.105.43-1.52.64-2.997 1.398-4.489 2.1 0 0 2.928.804 4.377 1.252.052.017.134.043.24.079a16.952 16.952 0 0 1 3.668 1.752c1.563 1.004 2.858 2.268 3.39 3.819-3.317.436-6.428 1.892-8.754 3.26a35.814 35.814 0 0 0-4.369 3.038c-.189.156-3.183 2.795-3.183 2.795s3.863.411 5.77.795c1.267.256 2.977.667 4.76 1.29 1.792.624 3.602 1.443 5.104 2.492 1.505 1.05 2.607 2.265 3.151 3.655 1.584 4.049.03 7.993-3.091 10.211-3.085 2.192-7.774 2.714-12.462-.506Zm10.918 5.007a12.918 12.918 0 0 0 3.495-1.755c4.247-3.02 6.482-8.549 4.277-14.184-.867-2.214-2.522-3.907-4.36-5.19-1.842-1.286-3.961-2.227-5.922-2.911-1.19-.413-2.4-.767-3.626-1.061.41-.267.825-.525 1.246-.773 2.592-1.525 5.857-2.925 8.988-2.925 4.719 0 8.234 1.448 11.589 3.002.305.14.611.285.919.429 2.999 1.407 6.148 2.884 9.807 2.884 3.549 0 6.313-1.003 8.218-2.04C58.73 49.627 46.65 60.632 31.999 60.632c-2.13 0-4.206-.233-6.204-.674Zm30.992-26.594c-1.261.43-2.79.742-4.578.742-2.87 0-5.337-1.15-8.468-2.61-.275-.129-.556-.26-.843-.392-3.135-1.452-6.762-2.99-11.483-3.27-.633-3.126-3.002-5.262-5.032-6.566-.222-.143-.447-.28-.675-.413.203-.048.41-.094.623-.137 2.727-.562 5.983-.702 8.74.596 3.273 1.54 5.12 3.313 7.04 5.158l.066.063c1.976 1.898 4.066 3.887 7.713 5.344 2.026.809 4.649 1.244 6.897 1.485Z"/>
</svg>
