<svg width="32" height="32" viewBox="0 0 32 32" fill="none" xmlns="http://www.w3.org/2000/svg">
    <path d="m31.631 11.315-12.371 1.61a.325.325 0 0 0-.187.09l-1.018 1.003a.327.327 0 0 1-.459 0l-.178-.176a.32.32 0 0 1 0-.456l1.215-1.197a.32.32 0 0 0 0-.456L16.23 9.366a.327.327 0 0 0-.458 0l-2.405 2.367a.32.32 0 0 0 0 .456l1.216 1.197a.32.32 0 0 1 0 .456l-.179.176a.327.327 0 0 1-.458 0l-1.018-1.002a.327.327 0 0 0-.187-.091L.368 11.315c-.308-.04-.492.33-.271.548l2.698 2.655c.206.202.06.55-.23.55a.321.321 0 0 0-.228.55l2.529 2.489c.041.04.093.07.15.084l8.608 2.136c.07.017.132.057.177.113l1.331 1.675c.238.325.639.7.639.7a.327.327 0 0 0 .458 0s.332-.332.639-.7L18.2 20.44a.325.325 0 0 1 .176-.113l8.608-2.136a.326.326 0 0 0 .15-.084l2.53-2.489a.321.321 0 0 0-.23-.55.321.321 0 0 1-.229-.55l2.698-2.655c.22-.217.037-.588-.271-.548Z" fill="#ED145B"/>
</svg>
