<svg version="1.0" xmlns="http://www.w3.org/2000/svg" width="1200" height="1200" viewBox="0 0 1200 1200"><g transform="translate(0.000000,1200) scale(0.100000,-0.100000)" fill="#000000" stroke="none"><path d="M5345 10151 c-11 -5 -28 -17 -37 -28 -10 -10 -333 -738 -718 -1617 -385 -879 -707 -1611 -715 -1627l-16 -29 -927 0 c-1019 0 -954 4 -987 -60 -23 -44 -22 -907 0 -950 32 -62 7 -60 760 -60 377 0 685 -2 685 -5 0 -3 -313 -720 -696 -1592 -382 -873 -698 -1599 -701 -1614 -8 -39 23 -95 62 -113 29 -14 102 -16 575 -16 576 0 587 1 616 47 6 10 622 1474 1369 3253 747 1779 1361 3238 1364 3242 4 4 615 -1454 1359 -3241 960 -2304 1361 -3256 1378 -3272 l26 -24 589 -3 c504 -2 593 0 618 12 29 16 61 69 61 104 0 11 -308 732 -685 1602 -376 870 -687 1591 -690 1601 -6 19 10 19 670 19 742 0 718 -2 750 60 22 42 23 906 1 949 -31 60 32 56 -973 61l-924 5 -694 1605 c-382 883 -702 1619 -711 1637 -34 65 -13 63 -736 62 -359 0 -662 -4 -673 -8z"/></g></svg>