<svg viewBox="0 0 80 80" xmlns="http://www.w3.org/2000/svg">
    <path fill="#fff" fill-rule="evenodd" d="M80 40C80 17.909 62.091 0 40 0S0 17.909 0 40s17.909 40 40 40 40-17.909 40-40Z"/>
    <path fill="#14202a" fill-rule="evenodd" d="M65.7 33.5H53.9l-9.3-21.2c-.1-.3-.4-.5-.7-.5H36c-.3 0-.6.2-.7.5L26 33.5H14.3c-.4 0-.8.3-.8.8v5.5c0 .4.3.8.8.8H23l-9 20.6c-.1.2-.1.5.1.7.1.2.4.3.6.3h6.8c.3 0 .6-.2.7-.5L40 19.4l17.8 42.3c.1.3.4.5.7.5h6.8c.3 0 .5-.1.6-.3.1-.2.2-.5.1-.7l-9-20.6h8.7c.4 0 .8-.3.8-.8v-5.5c-.1-.5-.4-.8-.8-.8Z"/>
</svg>
